<svg width="28" height="28" viewBox="0 0 28 28" fill="none" xmlns="http://www.w3.org/2000/svg">
<g opacity="0.4">
<path d="M3.69824 8.67999L13.9999 14.6416L24.2315 8.71496" stroke="#171717" stroke-width="1.5" stroke-linecap="round" stroke-linejoin="round"/>
<path d="M14 25.2117V14.63" stroke="#171717" stroke-width="1.5" stroke-linecap="round" stroke-linejoin="round"/>
<path d="M11.5851 2.89331L5.35514 6.35835C3.94347 7.14002 2.78849 9.09999 2.78849 10.71V17.3017C2.78849 18.9117 3.94347 20.8717 5.35514 21.6533L11.5851 25.1184C12.9151 25.8534 15.0968 25.8534 16.4268 25.1184L22.6568 21.6533C24.0685 20.8717 25.2235 18.9117 25.2235 17.3017V10.71C25.2235 9.09999 24.0685 7.14002 22.6568 6.35835L16.4268 2.89331C15.0851 2.14665 12.9151 2.14665 11.5851 2.89331Z" stroke="#171717" stroke-width="1.5" stroke-linecap="round" stroke-linejoin="round"/>
</g>
<path d="M19.8333 15.4467V11.1767L8.76168 4.78333" stroke="#171717" stroke-width="1.5" stroke-linecap="round" stroke-linejoin="round"/>
</svg>
