<svg width="24" height="24" viewBox="0 0 24 24" fill="none" xmlns="http://www.w3.org/2000/svg">
<path d="M17 10H19C21 10 22 9 22 7V5C22 3 21 2 19 2H17C15 2 14 3 14 5V7C14 9 15 10 17 10Z" stroke="#171717" stroke-width="1.5" stroke-miterlimit="10" stroke-linecap="round" stroke-linejoin="round"/>
<path d="M5 22H7C9 22 10 21 10 19V17C10 15 9 14 7 14H5C3 14 2 15 2 17V19C2 21 3 22 5 22Z" stroke="#171717" stroke-width="1.5" stroke-miterlimit="10" stroke-linecap="round" stroke-linejoin="round"/>
<path opacity="0.34" d="M6 10C8.20914 10 10 8.20914 10 6C10 3.79086 8.20914 2 6 2C3.79086 2 2 3.79086 2 6C2 8.20914 3.79086 10 6 10Z" stroke="#171717" stroke-width="1.5" stroke-miterlimit="10" stroke-linecap="round" stroke-linejoin="round"/>
<path d="M17.2001 22.1052V13.6677H18.6319V22.1052H17.2001ZM13.6973 18.6024V17.1706H22.1348V18.6024H13.6973Z" fill="#B0B0B0"/>
</svg>
