<svg width="28" height="28" viewBox="0 0 28 28" fill="none" xmlns="http://www.w3.org/2000/svg">
<path d="M25.2817 16.6833L24.815 22.5166C24.64 24.3016 24.5 25.6666 21.3383 25.6666H6.66167C3.5 25.6666 3.36 24.3016 3.185 22.5166L2.71833 16.6833C2.625 15.715 2.92833 14.8166 3.47667 14.1283C3.48833 14.1166 3.48833 14.1166 3.5 14.105C4.14167 13.3233 5.11 12.8333 6.195 12.8333H21.805C22.89 12.8333 23.8467 13.3233 24.4767 14.0816C24.4883 14.0933 24.5 14.105 24.5 14.1166C25.0717 14.805 25.3867 15.7033 25.2817 16.6833Z" stroke="#171717" stroke-width="1.5" stroke-miterlimit="10"/>
<path opacity="0.4" d="M4.08333 13.335V7.32668C4.08333 3.36001 5.075 2.36835 9.04167 2.36835H10.5233C12.005 2.36835 12.3433 2.81168 12.9033 3.55835L14.385 5.54168C14.7583 6.03168 14.98 6.33501 15.9717 6.33501H18.9467C22.9133 6.33501 23.905 7.32668 23.905 11.2933V13.3817" stroke="#171717" stroke-width="1.5" stroke-miterlimit="10" stroke-linecap="round" stroke-linejoin="round"/>
<path opacity="0.4" d="M11.0017 19.8333H16.9983" stroke="#171717" stroke-width="1.5" stroke-miterlimit="10" stroke-linecap="round" stroke-linejoin="round"/>
</svg>
