<svg width="42" height="32" viewBox="0 0 42 32" fill="none" xmlns="http://www.w3.org/2000/svg">
<g clip-path="url(#clip0_1_1287)">
<path d="M36.5865 29.1491C37.1613 29.1491 37.4726 29.5761 37.4726 30.1044V31.1069H37.0874V30.1667C37.0874 29.8211 36.9169 29.518 36.5591 29.518C36.2135 29.518 36.039 29.8089 36.039 30.1591V31.1069H35.6544V30.1585C35.6544 29.8095 35.4799 29.518 35.1255 29.518C34.7683 29.518 34.6089 29.8205 34.6089 30.1667V31.1069H34.2249V30.1085C34.2249 29.5761 34.5274 29.1485 35.0988 29.1485C35.4793 29.1485 35.7551 29.3428 35.8522 29.6384C35.9569 29.3428 36.2252 29.1491 36.5865 29.1491ZM32.8716 30.7805C33.2247 30.7805 33.4191 30.4733 33.4191 30.1201V29.2032H33.8036V30.1667C33.8036 30.7183 33.4697 31.1535 32.8716 31.1535C32.281 31.1535 31.9465 30.7142 31.9465 30.1626V29.2032H32.3311V30.1242C32.3311 30.4733 32.5219 30.7805 32.8716 30.7805ZM30.862 31.1494C30.5082 31.1494 30.2365 31.0097 30.0881 30.7264L30.3837 30.5635C30.4809 30.7532 30.6362 30.8236 30.8463 30.8236C31.0639 30.8236 31.2308 30.734 31.2308 30.567C31.2308 30.1667 30.1393 30.4698 30.1393 29.7431C30.1393 29.4092 30.4343 29.1642 30.8503 29.1642C31.2035 29.1642 31.4444 29.3271 31.5648 29.5488L31.2698 29.7164C31.1884 29.5488 31.033 29.4906 30.8579 29.4906C30.6793 29.4906 30.5239 29.5837 30.5239 29.735C30.5239 30.1242 31.6154 29.8403 31.6154 30.5588C31.6154 30.9201 31.2663 31.1494 30.862 31.1494ZM28.2211 31.9808H27.8359V30.151C27.8359 29.5837 28.2752 29.1561 28.85 29.1561C28.982 29.1541 29.113 29.1783 29.2354 29.2274C29.3579 29.2765 29.4693 29.3495 29.5633 29.4421C29.6573 29.5347 29.732 29.645 29.7829 29.7667C29.8339 29.8884 29.8601 30.019 29.8601 30.151C29.8601 30.7264 29.4447 31.1535 28.8652 31.1535C28.6092 31.1535 28.3764 31.0406 28.2205 30.8701V31.9814L28.2211 31.9808ZM28.85 30.7921C29.2038 30.7921 29.4755 30.5012 29.4755 30.1551C29.4755 29.8054 29.2038 29.522 28.85 29.522C28.4928 29.522 28.2211 29.8054 28.2211 30.1551C28.2211 30.5007 28.4928 30.7921 28.85 30.7921ZM26.9417 29.2032H27.3257V31.1069H26.9417V29.2032ZM32.1297 27.4659C29.191 27.4659 26.9492 25.2055 26.9492 22.4547C26.9492 19.7236 29.191 17.4627 32.1297 17.4627C35.0679 17.4627 37.3103 19.7236 37.3103 22.4547C37.3103 25.2055 35.0685 27.4659 32.1297 27.4659ZM32.1297 24.2822C33.2032 24.2822 33.9194 23.4531 33.9194 22.4739C33.9194 21.4755 33.2038 20.6464 32.1297 20.6464C31.0557 20.6464 30.3401 21.4755 30.3401 22.4733C30.3401 23.4531 31.0557 24.2822 32.1297 24.2822ZM20.5463 31.7987C18.2103 31.7987 16.5143 30.7631 15.648 28.9164L18.4553 27.4095C18.7567 28.0495 19.3222 28.7092 20.4899 28.7092C21.714 28.7092 22.5245 27.9366 22.6188 26.5804C22.1661 26.976 21.4505 27.2774 20.377 27.2774C17.7583 27.2774 15.648 25.262 15.648 22.4361C15.648 19.7044 17.8903 17.4819 20.8291 17.4819C23.8429 17.4819 26.0096 19.5729 26.0096 22.4547V26.1847C26.0096 29.5756 23.6544 31.7987 20.5463 31.7987ZM20.7721 24.0937C21.7897 24.0937 22.5617 23.3967 22.5617 22.3604C22.5617 21.3434 21.7897 20.665 20.7721 20.665C19.7737 20.665 18.983 21.3434 18.983 22.3604C18.983 23.3967 19.7743 24.0937 20.7721 24.0937ZM9.89615 27.4659C6.95738 27.4659 4.71564 25.2055 4.71564 22.4547C4.71564 19.7236 6.95738 17.4627 9.89615 17.4627C12.8343 17.4627 15.0767 19.7236 15.0767 22.4547C15.0767 25.2055 12.8349 27.4659 9.89615 27.4659ZM9.89615 24.2822C10.9696 24.2822 11.6858 23.4531 11.6858 22.4739C11.6858 21.4755 10.9702 20.6464 9.89615 20.6464C8.82211 20.6464 8.10647 21.4755 8.10647 22.4733C8.10647 23.4531 8.82211 24.2822 9.89615 24.2822ZM0 13.4313H3.39084V27.1831H0V13.4313ZM41.1543 18.6182C41.1543 18.9268 41.0317 19.2228 40.8135 19.441C40.5953 19.6592 40.2993 19.7818 39.9907 19.7818C39.6821 19.7818 39.3861 19.6592 39.1679 19.441C38.9496 19.2228 38.8271 18.9268 38.8271 18.6182C38.8271 18.3096 38.9496 18.0136 39.1679 17.7954C39.3861 17.5771 39.6821 17.4545 39.9907 17.4545C40.2993 17.4545 40.5953 17.5771 40.8135 17.7954C41.0317 18.0136 41.1543 18.3096 41.1543 18.6182Z" fill="#113441"/>
<path fill-rule="evenodd" clip-rule="evenodd" d="M31.8778 5.6233C35.2211 8.96657 37.2133 13.4259 37.4726 18.1469C36.4847 16.9908 35.1428 16.1932 33.6553 15.8778C32.9773 12.7449 31.3573 9.89437 29.0125 7.70881C26.6677 5.52325 23.7104 4.10729 20.5376 3.65101C17.3649 3.19472 14.1284 3.71995 11.2628 5.15619C8.39715 6.59242 6.03944 8.87093 4.50616 11.6858H0.631836C1.86148 8.79411 3.78208 6.24837 6.22509 4.27204C8.6681 2.2957 11.5588 0.949189 14.6436 0.350657C17.7284 -0.247875 20.913 -0.0801274 23.9178 0.839178C26.9227 1.75848 29.6559 3.40125 31.8778 5.6233Z" fill="#FFD43E"/>
<path fill-rule="evenodd" clip-rule="evenodd" d="M29.4092 8.0919C31.5429 10.2255 33.017 12.9286 33.6553 15.8778C33.1654 15.7731 32.6546 15.7172 32.1298 15.7172C31.4199 15.7172 30.7369 15.8184 30.0951 16.0075C29.3796 13.3609 27.7947 11.0319 25.5954 9.39502C23.396 7.75816 20.71 6.90861 17.9694 6.98302C15.2288 7.05743 12.5928 8.05147 10.4855 9.80526C8.37819 11.559 6.922 13.9707 6.35114 16.6522C5.91481 16.9033 5.50741 17.2016 5.13631 17.5418V11.6858H4.50562C5.67395 9.54077 7.32639 7.69774 9.33166 6.30311C11.3369 4.90848 13.6398 4.00067 16.0573 3.65179C18.4748 3.30291 20.9404 3.52258 23.2582 4.29335C25.5759 5.06411 27.682 6.36473 29.4092 8.0919Z" fill="#EE8E1D"/>
<path d="M26.9416 17.9712C26.6741 16.0889 25.7992 14.3454 24.45 13.0059C23.1007 11.6663 21.351 10.804 19.4668 10.5501C17.5826 10.2962 15.667 10.6645 14.0113 11.5991C12.3556 12.5337 11.0503 13.9833 10.2941 15.7277C12.3653 15.8394 14.1748 16.8175 15.3605 18.2941C16.6242 16.729 18.5972 15.7364 20.829 15.7364C23.2203 15.7364 25.2753 16.7849 26.5117 18.4931C26.6461 18.3121 26.7898 18.1382 26.9416 17.9712Z" fill="#971C1C"/>
<path fill-rule="evenodd" clip-rule="evenodd" d="M30.0945 16.0076C28.8835 16.3613 27.7927 17.0405 26.941 17.9712C26.6733 16.0891 25.7984 14.3459 24.4492 13.0066C23.1 11.6672 21.3504 10.8051 19.4664 10.5512C17.5823 10.2973 15.6669 10.6655 14.0113 11.5999C12.3557 12.5342 11.0505 13.9836 10.2941 15.7277C10.1615 15.7207 10.0288 15.7172 9.89609 15.7173C8.59457 15.7173 7.38438 16.0582 6.35107 16.6522C6.9224 13.9711 8.37878 11.56 10.4861 9.80657C12.5933 8.05317 15.229 7.05937 17.9694 6.98497C20.7097 6.91057 23.3954 7.75989 25.5947 9.39637C27.794 11.0328 29.3791 13.3614 30.0951 16.0076H30.0945Z" fill="#D62727"/>
</g>
<defs>
<clipPath id="clip0_1_1287">
<rect width="41.3091" height="32" fill="white"/>
</clipPath>
</defs>
</svg>
