<svg width="28" height="28" viewBox="0 0 28 28" fill="none" xmlns="http://www.w3.org/2000/svg">
<path d="M5.80863 11.2993C3.49176 10.3725 2.33333 9.90915 2.33333 9.33334C2.33333 8.75753 3.49176 8.29415 5.80863 7.36741L9.08518 6.05679C11.402 5.13005 12.5604 4.66667 14 4.66667C15.4395 4.66667 16.5979 5.13005 18.9148 6.05679L22.1914 7.36741C24.5083 8.29415 25.6667 8.75753 25.6667 9.33334C25.6667 9.90915 24.5083 10.3725 22.1914 11.2993L18.9148 12.6099C16.5979 13.5366 15.4395 14 14 14C12.5604 14 11.402 13.5366 9.08518 12.6099L5.80863 11.2993Z" stroke="#171717" stroke-width="2"/>
<path opacity="0.5" d="M6.72715 11.6667L5.80863 12.034C3.49176 12.9608 2.33333 13.4242 2.33333 14C2.33333 14.5757 3.49176 15.0391 5.80863 15.9659L9.08518 17.2766C11.402 18.2033 12.5604 18.6667 14 18.6667C15.4395 18.6667 16.5979 18.2033 18.9148 17.2766L22.1914 15.9659C24.5083 15.0391 25.6667 14.5757 25.6667 14C25.6667 13.4242 24.5083 12.9608 22.1914 12.034L21.2729 11.6667M6.72715 16.3333L5.80863 16.7007C3.49176 17.6275 2.33333 18.0909 2.33333 18.6667C2.33333 19.2424 3.49176 19.7058 5.80863 20.6326L9.08518 21.9432C11.402 22.8699 12.5604 23.3333 14 23.3333C15.4395 23.3333 16.5979 22.8699 18.9148 21.9432L22.1914 20.6326C24.5083 19.7058 25.6667 19.2424 25.6667 18.6667C25.6667 18.0909 24.5083 17.6275 22.1914 16.7007L21.2729 16.3333" stroke="#171717" stroke-width="2"/>
</svg>
