<svg width="56" height="40" viewBox="0 0 56 40" fill="none" xmlns="http://www.w3.org/2000/svg">
<path d="M4.56161 36.2573V28.1081H3.23071V36.2573H4.56161Z" fill="#152C4F"/>
<path d="M5.37622 33.5409C5.37622 35.2058 6.48896 36.3887 8.17983 36.3887C9.87071 36.3887 10.9834 35.2058 10.9834 33.5409C10.9834 31.876 9.87071 30.6931 8.17983 30.6931C6.48896 30.6931 5.37622 31.876 5.37622 33.5409ZM6.71802 33.5409C6.71802 32.5661 7.29622 31.887 8.17983 31.887C9.06345 31.887 9.64165 32.5661 9.64165 33.5409C9.64165 34.5048 9.06345 35.1948 8.17983 35.1948C7.29622 35.1948 6.71802 34.5048 6.71802 33.5409Z" fill="#152C4F"/>
<path d="M11.4312 33.4314C11.4312 35.0087 12.4457 36.1478 13.962 36.1478C14.7475 36.1478 15.4238 35.8301 15.762 35.3044V36.2244C15.762 37.1116 15.2057 37.7031 14.2784 37.7031C13.4493 37.7031 12.882 37.2978 12.8057 36.5859H11.4639C11.6384 37.9989 12.7184 38.9189 14.202 38.9189C15.9475 38.9189 17.0602 37.7688 17.0602 35.9835V30.8464H15.882L15.8057 31.5803C15.4784 31.0107 14.802 30.6711 14.0056 30.6711C12.4675 30.6711 11.4312 31.8431 11.4312 33.4314ZM12.7839 33.3985C12.7839 32.5003 13.3511 31.8431 14.1911 31.8431C15.1075 31.8431 15.7184 32.5113 15.7184 33.3985C15.7184 34.2967 15.1075 34.9867 14.1911 34.9867C13.362 34.9867 12.7839 34.3076 12.7839 33.3985Z" fill="#152C4F"/>
<path d="M17.7188 33.5409C17.7188 35.2058 18.8315 36.3887 20.5224 36.3887C22.2132 36.3887 23.326 35.2058 23.326 33.5409C23.326 31.876 22.2132 30.6931 20.5224 30.6931C18.8315 30.6931 17.7188 31.876 17.7188 33.5409ZM19.0605 33.5409C19.0605 32.5661 19.6387 31.887 20.5224 31.887C21.406 31.887 21.9842 32.5661 21.9842 33.5409C21.9842 34.5048 21.406 35.1948 20.5224 35.1948C19.6387 35.1948 19.0605 34.5048 19.0605 33.5409Z" fill="#152C4F"/>
<path d="M24.7663 29.7402C25.2027 29.7402 25.5627 29.3896 25.5627 28.9405C25.5627 28.5024 25.2027 28.1519 24.7663 28.1519C24.319 28.1519 23.9808 28.5024 23.9808 28.9405C23.9808 29.3896 24.319 29.7402 24.7663 29.7402ZM24.1009 36.2573H25.4318V30.8464H24.1009V36.2573Z" fill="#152C4F"/>
<path d="M26.5978 38.7656H27.8959V35.5125C28.2341 36.0711 28.965 36.3997 29.7723 36.3997C31.365 36.3997 32.3141 35.1729 32.2922 33.4861C32.2595 31.7884 31.2886 30.6821 29.7613 30.6821C28.9432 30.6821 28.2014 31.0436 27.8741 31.6679L27.7977 30.8464H26.5978V38.7656ZM27.9504 33.5518C27.9504 32.577 28.5396 31.8979 29.4668 31.8979C30.3941 31.8979 30.9504 32.5879 30.9504 33.5518C30.9504 34.5157 30.3941 35.1948 29.4668 35.1948C28.5396 35.1948 27.9504 34.5267 27.9504 33.5518Z" fill="#152C4F"/>
<path d="M32.6301 34.6362C32.6738 35.7096 33.5029 36.3997 34.7901 36.3997C36.0555 36.3997 36.9174 35.7206 36.9174 34.6691C36.9174 33.8914 36.4374 33.3656 35.5538 33.1466L34.6047 32.9165C34.201 32.807 33.9283 32.6646 33.9283 32.3142C33.9283 31.9417 34.2228 31.6789 34.7028 31.6789C35.2047 31.6789 35.5319 31.9636 35.5319 32.4346H36.7428C36.6992 31.3612 35.9028 30.6821 34.7356 30.6821C33.5792 30.6821 32.7174 31.3612 32.7174 32.3908C32.7174 33.0918 33.121 33.6723 34.1574 33.9462L35.0956 34.1871C35.4447 34.2857 35.6629 34.45 35.6629 34.7567C35.6629 35.1839 35.2592 35.381 34.7683 35.381C34.1792 35.381 33.841 35.1072 33.841 34.6362H32.6301Z" fill="#152C4F"/>
<path d="M39.678 36.3997C40.4089 36.3997 41.1071 36.0601 41.4235 35.5563L41.5107 36.2573H42.7544V30.8464H41.4235V33.6833C41.4235 34.6581 41.0526 35.2058 40.1799 35.2058C39.5035 35.2058 39.0344 34.8772 39.0344 33.7599V30.8464H37.7035V34.231C37.7035 35.5234 38.4017 36.3997 39.678 36.3997Z" fill="#152C4F"/>
<path d="M45.2599 36.2573V33.1466C45.2599 32.2703 45.7727 31.8541 46.4054 31.8541C47.0381 31.8541 47.4527 32.2593 47.4527 33.0261V36.2573H48.7508V33.1575C48.7508 32.2703 49.2526 31.8541 49.8854 31.8541C50.529 31.8541 50.9436 32.2593 50.9436 33.0261V36.2573H52.2308V32.7194C52.2308 31.4707 51.5435 30.6821 50.2345 30.6821C49.4163 30.6821 48.7726 31.0764 48.5108 31.7117C48.2163 31.0764 47.6272 30.6821 46.7327 30.6821C46.0999 30.6821 45.5327 30.9778 45.2163 31.4598L45.1508 30.8464H43.9291V36.2573H45.2599Z" fill="#152C4F"/>
<path d="M24.493 20.731C22.7396 23.8984 19.1697 25.4054 15.56 25.4054H1.0769C16.1538 23.5135 26.6538 15.9459 28 5.4054C29.3461 15.9459 39.8461 23.5135 54.9231 25.4054H40.44C36.8303 25.4054 33.2603 23.8984 31.507 20.731C29.6092 17.3027 28.4002 13.4234 28 9.18918C27.5998 13.4234 26.3907 17.3027 24.493 20.731Z" fill="#1A4688"/>
<path d="M16.2105 19.6115C15.3647 20.0895 14.475 20.5385 13.5435 20.9567C13.0144 19.1218 12.8197 17.1967 12.9749 15.2789C13.1804 12.7419 13.992 10.296 15.3379 8.158C16.6839 6.02 18.5226 4.25578 20.6912 3.02167C22.8598 1.78756 25.2914 1.12163 27.7705 1.08288C30.2497 1.04412 32.6998 1.63374 34.904 2.7995C37.1082 3.96525 38.9984 5.67114 40.407 7.76611C41.8158 9.86108 42.6995 12.2804 42.9801 14.8098C43.2096 16.8788 43.0297 18.9691 42.4565 20.9567C41.525 20.5385 40.6353 20.0895 39.7896 19.6115C40.1461 18.1584 40.2461 16.6467 40.08 15.149C39.8537 13.1092 39.141 11.1583 38.0051 9.46892C36.8691 7.77957 35.3448 6.4039 33.5674 5.46384C31.7899 4.52377 29.8141 4.04831 27.8149 4.07956C25.8157 4.11081 23.8549 4.64781 22.1062 5.64298C20.3575 6.63817 18.8747 8.06081 17.7893 9.78492C16.704 11.509 16.0495 13.4814 15.8838 15.5272C15.7725 16.9024 15.8843 18.2823 16.2105 19.6115Z" fill="#7FB5E6"/>
</svg>
