<svg width="32" height="32" viewBox="0 0 32 32" fill="none" xmlns="http://www.w3.org/2000/svg">
<g clip-path="url(#clip0_1_1293)">
<path fill-rule="evenodd" clip-rule="evenodd" d="M10.7041 0.402832C8.94299 0.402832 7.25409 1.10241 6.00883 2.34767L0 8.35646V11.1069C0 13.0501 0.834685 14.7983 2.16508 16.0126C0.834685 17.2269 0 18.9751 0 20.9183V23.6687L6.00883 29.6775C7.25409 30.9228 8.94299 31.6223 10.7041 31.6223C12.6473 31.6223 14.3955 30.7877 15.6098 29.4573C16.824 30.7877 18.5723 31.6223 20.5154 31.6223C22.2765 31.6223 23.9654 30.9228 25.2107 29.6775L31.2195 23.6687V20.9183C31.2195 18.9751 30.3849 17.2269 29.0544 16.0126C30.3849 14.7983 31.2195 13.0501 31.2195 11.1069V8.35646L25.2107 2.34767C23.9654 1.10241 22.2765 0.402832 20.5154 0.402832C18.5723 0.402832 16.824 1.23751 15.6098 2.56791C14.3955 1.23751 12.6473 0.402832 10.7041 0.402832ZM20.1044 16.0126C20.0296 15.9443 19.9561 15.8741 19.8842 15.8022L15.6098 11.5277L11.3353 15.8022C11.2634 15.8741 11.1899 15.9443 11.1151 16.0126C11.1899 16.0809 11.2634 16.151 11.3353 16.223L15.6098 20.4974L19.8842 16.223C19.9561 16.151 20.0296 16.0809 20.1044 16.0126ZM17.3442 23.6687V24.9823C17.3442 26.7337 18.764 28.1535 20.5154 28.1535C21.3565 28.1535 22.1631 27.8194 22.7579 27.2247L27.7507 22.2318V20.9183C27.7507 19.1668 26.3308 17.747 24.5794 17.747C23.7384 17.747 22.9317 18.0811 22.337 18.6758L17.3442 23.6687ZM13.8754 23.6687L8.8825 18.6758C8.28777 18.0811 7.48116 17.747 6.64009 17.747C4.88866 17.747 3.46883 19.1668 3.46883 20.9183V22.2318L8.46166 27.2247C9.05639 27.8194 9.86302 28.1535 10.7041 28.1535C12.4555 28.1535 13.8754 26.7337 13.8754 24.9823V23.6687ZM13.8754 7.04292V8.35646L8.8825 13.3493C8.28777 13.9441 7.48116 14.2782 6.64009 14.2782C4.88866 14.2782 3.46883 12.8583 3.46883 11.1069V9.79334L8.46166 4.8005C9.05639 4.20578 9.86302 3.87167 10.7041 3.87167C12.4555 3.87167 13.8754 5.29149 13.8754 7.04292ZM22.337 13.3493L17.3442 8.35646V7.04292C17.3442 5.29149 18.764 3.87167 20.5154 3.87167C21.3565 3.87167 22.1631 4.20578 22.7579 4.8005L27.7507 9.79334V11.1069C27.7507 12.8583 26.3308 14.2782 24.5794 14.2782C23.7384 14.2782 22.9317 13.9441 22.337 13.3493Z" fill="#FF630B"/>
</g>
<defs>
<clipPath id="clip0_1_1293">
<rect width="31.2195" height="32" fill="white"/>
</clipPath>
</defs>
</svg>
