<svg width="28" height="28" viewBox="0 0 28 28" fill="none" xmlns="http://www.w3.org/2000/svg">
<path opacity="0.4" d="M20.9972 8.35333C20.9272 8.34167 20.8456 8.34167 20.7756 8.35333C19.1656 8.295 17.8822 6.97666 17.8822 5.34333C17.8822 3.675 19.2239 2.33333 20.8922 2.33333C22.5606 2.33333 23.9022 3.68666 23.9022 5.34333C23.8906 6.97666 22.6072 8.295 20.9972 8.35333Z" stroke="#171717" stroke-width="1.5" stroke-linecap="round" stroke-linejoin="round"/>
<path opacity="0.4" d="M19.7954 16.8467C21.3937 17.115 23.1554 16.835 24.3921 16.0067C26.0371 14.91 26.0371 13.1133 24.3921 12.0167C23.1437 11.1883 21.3587 10.9083 19.7604 11.1883" stroke="#171717" stroke-width="1.5" stroke-linecap="round" stroke-linejoin="round"/>
<path opacity="0.4" d="M6.96207 8.35333C7.03207 8.34167 7.11374 8.34167 7.18374 8.35333C8.79374 8.295 10.0771 6.97666 10.0771 5.34333C10.0771 3.675 8.7354 2.33333 7.06707 2.33333C5.39874 2.33333 4.05707 3.68666 4.05707 5.34333C4.06873 6.97666 5.35207 8.295 6.96207 8.35333Z" stroke="#171717" stroke-width="1.5" stroke-linecap="round" stroke-linejoin="round"/>
<path opacity="0.4" d="M8.16376 16.8467C6.56543 17.115 4.80376 16.835 3.56709 16.0067C1.92209 14.91 1.92209 13.1133 3.56709 12.0167C4.81543 11.1883 6.60042 10.9083 8.19876 11.1883" stroke="#171717" stroke-width="1.5" stroke-linecap="round" stroke-linejoin="round"/>
<path d="M14 17.0683C13.93 17.0567 13.8483 17.0567 13.7783 17.0683C12.1683 17.01 10.885 15.6917 10.885 14.0583C10.885 12.39 12.2267 11.0483 13.895 11.0483C15.5633 11.0483 16.905 12.4017 16.905 14.0583C16.8933 15.6917 15.61 17.0217 14 17.0683Z" stroke="#171717" stroke-width="1.5" stroke-linecap="round" stroke-linejoin="round"/>
<path d="M10.605 20.7433C8.96 21.84 8.96 23.6367 10.605 24.7333C12.4717 25.9817 15.5283 25.9817 17.395 24.7333C19.04 23.6367 19.04 21.84 17.395 20.7433C15.54 19.5067 12.4717 19.5067 10.605 20.7433Z" stroke="#171717" stroke-width="1.5" stroke-linecap="round" stroke-linejoin="round"/>
</svg>
