<svg width="28" height="28" viewBox="0 0 28 28" fill="none" xmlns="http://www.w3.org/2000/svg">
<path d="M25.6667 7.00001V9.82334C25.6667 11.6667 24.5 12.8333 22.6566 12.8333H18.6667V4.67834C18.6667 3.38334 19.7284 2.33334 21.0234 2.33334C22.295 2.34501 23.4617 2.85834 24.3017 3.69834C25.1417 4.55001 25.6667 5.71668 25.6667 7.00001Z" stroke="#171717" stroke-width="1.5" stroke-miterlimit="10" stroke-linecap="round" stroke-linejoin="round"/>
<path d="M2.33333 8.16668V24.5C2.33333 25.4683 3.42997 26.0167 4.19997 25.4333L6.195 23.94C6.66166 23.59 7.31501 23.6367 7.73501 24.0567L9.67164 26.005C10.1266 26.46 10.8734 26.46 11.3284 26.005L13.2884 24.045C13.6967 23.6367 14.35 23.59 14.805 23.94L16.8 25.4333C17.57 26.005 18.6667 25.4567 18.6667 24.5V4.66668C18.6667 3.38334 19.7167 2.33334 21 2.33334H8.16667H7C3.5 2.33334 2.33333 4.42168 2.33333 7.00001V8.16668Z" stroke="#171717" stroke-width="1.5" stroke-miterlimit="10" stroke-linecap="round" stroke-linejoin="round"/>
<path opacity="0.4" d="M7 10.5H14" stroke="#171717" stroke-width="1.5" stroke-linecap="round" stroke-linejoin="round"/>
<path opacity="0.4" d="M7.875 15.1667H13.125" stroke="#171717" stroke-width="1.5" stroke-linecap="round" stroke-linejoin="round"/>
</svg>
