<svg width="28" height="28" viewBox="0 0 28 28" fill="none" xmlns="http://www.w3.org/2000/svg">
<path d="M17.955 6.07834L19.6 9.36833C19.8217 9.82333 20.4167 10.255 20.9183 10.3483L23.8934 10.8383C25.795 11.1533 26.2384 12.53 24.8734 13.9067L22.5517 16.2283C22.1667 16.6133 21.945 17.3717 22.0734 17.92L22.7383 20.79C23.2633 23.0533 22.05 23.94 20.055 22.75L17.2667 21.0933C16.765 20.79 15.925 20.79 15.4233 21.0933L12.635 22.75C10.64 23.9283 9.42668 23.0533 9.95168 20.79L10.6167 17.92C10.745 17.3833 10.5234 16.625 10.1384 16.2283L7.8167 13.9067C6.4517 12.5417 6.89502 11.165 8.79669 10.8383L11.7717 10.3483C12.2733 10.2667 12.8683 9.82333 13.09 9.36833L14.735 6.07834C15.61 4.29334 17.0567 4.29334 17.955 6.07834Z" stroke="#171717" stroke-width="1.5" stroke-linecap="round" stroke-linejoin="round"/>
<path opacity="0.4" d="M9.33333 5.83334H2.33333" stroke="#171717" stroke-width="1.5" stroke-linecap="round" stroke-linejoin="round"/>
<path opacity="0.4" d="M5.83333 22.1667H2.33333" stroke="#171717" stroke-width="1.5" stroke-linecap="round" stroke-linejoin="round"/>
<path opacity="0.4" d="M3.5 14H2.33333" stroke="#171717" stroke-width="1.5" stroke-linecap="round" stroke-linejoin="round"/>
</svg>
