<svg width="82" height="33" viewBox="0 0 82 33" fill="none" xmlns="http://www.w3.org/2000/svg">
<path d="M0.830795 32.1904L10.2348 18.5547C10.5927 18.0357 11.3334 17.9683 11.7791 18.414L20.1774 26.8123C20.6165 27.2514 21.3442 27.1936 21.7084 26.6906L31.1286 13.6818C31.4093 13.2942 31.9237 13.157 32.3601 13.3534L41.1703 17.318C41.4995 17.4661 41.8827 17.4272 42.1753 17.2158L50.3436 11.3165C50.6191 11.1176 50.9762 11.0706 51.2937 11.1916L60.6463 14.7545C61.0784 14.9191 61.5671 14.769 61.8323 14.3901L70.8974 1.43995C71.3594 0.779972 72.3704 0.900715 72.664 1.65093L81.0602 23.1079" stroke="#FF754A" stroke-width="2"/>
</svg>
