<svg width="80" height="39" viewBox="0 0 80 39" fill="none" xmlns="http://www.w3.org/2000/svg">
<path d="M9.3771 16.8198L0.177899 30.1587C0.0620432 30.3267 0 30.5259 0 30.73V37.4606C0 38.0164 0.45053 38.4669 1.00629 38.4669H78.9937C79.5495 38.4669 80 38.0164 80 37.4606V21.5499C80 21.4244 79.9765 21.3 79.9308 21.1832L71.892 0.639605C71.5568 -0.216977 70.3429 -0.211969 70.0148 0.64735L60.8269 24.7108C60.5966 25.314 59.8659 25.5473 59.3287 25.1892L50.5669 19.348C50.1377 19.0619 49.5615 19.1467 49.2329 19.5444L40.9202 29.6072C40.5556 30.0486 39.8967 30.0973 39.4712 29.7143L30.6764 21.799C30.38 21.5322 29.954 21.4656 29.5903 21.6293L20.7592 25.6033C20.3779 25.7749 19.9303 25.6928 19.6347 25.3972L10.917 16.6796C10.4726 16.2351 9.73395 16.3024 9.3771 16.8198Z" fill="url(#paint0_linear_1_1144)"/>
<defs>
<linearGradient id="paint0_linear_1_1144" x1="41.2579" y1="18.8443" x2="40.2516" y2="45.0078" gradientUnits="userSpaceOnUse">
<stop stop-color="#EADFFF"/>
<stop offset="1" stop-color="white" stop-opacity="0"/>
</linearGradient>
</defs>
</svg>
