<svg width="82" height="32" viewBox="0 0 82 32" fill="none" xmlns="http://www.w3.org/2000/svg">
<path d="M0.823212 31.2265L10.1417 17.7147C10.4963 17.2005 11.2303 17.1336 11.672 17.5753L20.3352 26.2385C20.6289 26.5322 21.0738 26.6138 21.4526 26.4433L30.2286 22.4941C30.59 22.3315 31.0133 22.3976 31.3079 22.6627L40.0477 30.5286C40.4706 30.9092 41.1253 30.8608 41.4877 30.4222L49.7484 20.4223C50.075 20.027 50.6475 19.9427 51.0741 20.2271L59.7811 26.0318C60.3149 26.3877 61.0411 26.1558 61.27 25.5564L70.4004 1.6433C70.7265 0.789356 71.9328 0.784379 72.2659 1.63561L80.3232 22.2265" stroke="#9F7ED5" stroke-width="2"/>
</svg>
