<svg width="80" height="39" viewBox="0 0 80 39" fill="none" xmlns="http://www.w3.org/2000/svg">
<path d="M9.31849 16.7147L0.176787 29.9702C0.0616554 30.1371 0 30.3351 0 30.5379V37.2265C0 37.7788 0.447714 38.2265 0.999999 38.2265H78.5C79.0523 38.2265 79.5 37.7788 79.5 37.2265V21.4152C79.5 21.2905 79.4767 21.1669 79.4312 21.0508L71.4427 0.635607C71.1096 -0.215621 69.9033 -0.210644 69.5772 0.643304L60.4468 24.5564C60.2179 25.1558 59.4917 25.3877 58.9579 25.0317L50.2509 19.2271C49.8243 18.9427 49.2518 19.027 48.9252 19.4223L40.6645 29.4222C40.3021 29.8608 39.6474 29.9092 39.2245 29.5286L30.4847 21.6627C30.1901 21.3976 29.7668 21.3315 29.4054 21.4941L20.6294 25.4433C20.2505 25.6138 19.8057 25.5322 19.5119 25.2385L10.8488 16.5753C10.4071 16.1336 9.67312 16.2005 9.31849 16.7147Z" fill="url(#paint0_linear_1_1145)"/>
<defs>
<linearGradient id="paint0_linear_1_1145" x1="41" y1="18.7265" x2="40" y2="44.7265" gradientUnits="userSpaceOnUse">
<stop stop-color="#F1ECB5"/>
<stop offset="1" stop-color="white" stop-opacity="0"/>
</linearGradient>
</defs>
</svg>
