<svg width="82" height="32" viewBox="0 0 82 32" fill="none" xmlns="http://www.w3.org/2000/svg">
<path d="M0.82857 31.4286L10.2074 17.8293C10.5643 17.3118 11.303 17.2445 11.7476 17.6891L20.4668 26.4083C20.7625 26.7039 21.2102 26.786 21.5915 26.6144L30.4242 22.6397C30.788 22.476 31.214 22.5426 31.5105 22.8094L40.3069 30.7261C40.7325 31.1092 41.3915 31.0605 41.7562 30.619L50.0704 20.5544C50.3991 20.1566 50.9753 20.0718 51.4047 20.358L60.168 26.2002C60.7053 26.5584 61.4362 26.3251 61.6665 25.7218L70.8561 1.65394C71.1842 0.794464 72.3983 0.789455 72.7336 1.64619L80.843 22.3704" stroke="#DBD37A" stroke-width="2"/>
</svg>
