<svg width="80" height="39" viewBox="0 0 80 39" fill="none" xmlns="http://www.w3.org/2000/svg">
<path d="M9.33979 17.439L0.177191 30.7248C0.0617963 30.8921 0 31.0906 0 31.2938V37.9977C0 38.5513 0.448738 39 1.00228 39H78.6794C79.233 39 79.6817 38.5513 79.6817 37.9977V22.1503C79.6817 22.0253 79.6583 21.9014 79.6128 21.785L71.3375 0.637229C71.0471 -0.105132 70.0482 -0.227709 69.5868 0.42239L60.0725 13.8289C59.814 14.1932 59.3456 14.3424 58.924 14.1948L50.1127 11.1109C49.8001 11.0014 49.4536 11.0535 49.187 11.25L40.597 17.5795C40.2878 17.8073 39.8756 17.8384 39.5357 17.6595L31.3124 13.3315C30.8827 13.1053 30.3526 13.2197 30.0544 13.6031L20.7428 25.5752C20.3726 26.0511 19.6692 26.0949 19.2429 25.6686L10.8736 17.2993C10.4309 16.8566 9.69522 16.9236 9.33979 17.439Z" fill="url(#paint0_linear_1_1146)"/>
<defs>
<linearGradient id="paint0_linear_1_1146" x1="41.0937" y1="19.4554" x2="40.0914" y2="45.5149" gradientUnits="userSpaceOnUse">
<stop stop-color="#FFF0EA"/>
<stop offset="1" stop-color="white" stop-opacity="0"/>
</linearGradient>
</defs>
</svg>
