<svg width="32" height="32" viewBox="0 0 32 32" fill="none" xmlns="http://www.w3.org/2000/svg">
<g opacity="0.4">
<path d="M14.3335 22.48V25.1867C14.3335 27.48 12.2002 29.3333 9.5735 29.3333C6.94683 29.3333 4.80014 27.48 4.80014 25.1867V22.48C4.80014 24.7733 6.9335 26.4 9.5735 26.4C12.2002 26.4 14.3335 24.76 14.3335 22.48Z" stroke="#171717" stroke-width="1.5" stroke-linecap="round" stroke-linejoin="round"/>
<path d="M14.3331 18.8133C14.3331 19.48 14.1464 20.0933 13.8264 20.6266C13.0398 21.9199 11.4264 22.7333 9.55974 22.7333C7.69308 22.7333 6.07973 21.9066 5.29306 20.6266C4.97306 20.0933 4.78647 19.48 4.78647 18.8133C4.78647 17.6666 5.31977 16.64 6.17311 15.8933C7.03977 15.1333 8.2264 14.68 9.5464 14.68C10.8664 14.68 12.0531 15.1466 12.9198 15.8933C13.7998 16.6266 14.3331 17.6666 14.3331 18.8133Z" stroke="#171717" stroke-width="1.5" stroke-linecap="round" stroke-linejoin="round"/>
<path d="M14.3335 18.8133V22.48C14.3335 24.7733 12.2002 26.4 9.5735 26.4C6.94683 26.4 4.80014 24.76 4.80014 22.48V18.8133C4.80014 16.52 6.9335 14.6667 9.5735 14.6667C10.8935 14.6667 12.0802 15.1333 12.9469 15.88C13.8002 16.6267 14.3335 17.6667 14.3335 18.8133Z" stroke="#171717" stroke-width="1.5" stroke-linecap="round" stroke-linejoin="round"/>
</g>
<path d="M29.3334 14.6266V17.3734C29.3334 18.1067 28.7467 18.7066 28 18.7333H25.3867C23.9467 18.7333 22.6267 17.68 22.5067 16.24C22.4267 15.4 22.7467 14.6133 23.3067 14.0666C23.8 13.56 24.48 13.2667 25.2267 13.2667H28C28.7467 13.2933 29.3334 13.8933 29.3334 14.6266Z" stroke="#171717" stroke-width="1.5" stroke-linecap="round" stroke-linejoin="round"/>
<path d="M2.66666 14V11.3334C2.66666 7.70669 4.85333 5.17335 8.25333 4.74668C8.59999 4.69335 8.95999 4.66669 9.33332 4.66669H21.3333C21.68 4.66669 22.0133 4.68 22.3333 4.73334C25.7733 5.13334 28 7.68002 28 11.3334V13.2667H25.2266C24.48 13.2667 23.8 13.56 23.3066 14.0667C22.7466 14.6133 22.4267 15.4 22.5067 16.24C22.6267 17.68 23.9466 18.7333 25.3866 18.7333H28V20.6667C28 24.6667 25.3333 27.3334 21.3333 27.3334H18" stroke="#171717" stroke-width="1.5" stroke-linecap="round" stroke-linejoin="round"/>
</svg>
